HIERARCHY
ROOT Pelvis
{
	OFFSET 0.000000 0.000000 0.000000
	CHANNELS 6 Xposition Yposition Zposition Xrotation Yrotation Zrotation
	JOINT LeftUpLeg_virtual
	{
		OFFSET 0.000000 0.000000 0.000000
		CHANNELS 3 Xrotation Yrotation Zrotation
		JOINT LeftUpLeg
		{
			OFFSET 18.735201 -5.666702 -4.541200
			CHANNELS 3 Xrotation Yrotation Zrotation
			JOINT LeftLeg
			{
				OFFSET -0.021200 -31.938179 0.493100
				CHANNELS 3 Xrotation Yrotation Zrotation
				JOINT LeftFoot
				{
					OFFSET 0.021200 -31.938179 -4.336299
					CHANNELS 3 Xrotation Yrotation Zrotation
					JOINT LeftToeBase
					{
						OFFSET 0.943001 -26.722000 15.023500
						CHANNELS 3 Xrotation Yrotation Zrotation
						End Site
						{
							OFFSET 0 0 0
						}
					}
				}
			}
		}
	}
	JOINT RightUpLeg_virtual
	{
		OFFSET 0.000000 0.000000 0.000000
		CHANNELS 3 Xrotation Yrotation Zrotation
		JOINT RightUpLeg
		{
			OFFSET -18.735201 -5.666702 -4.541200
			CHANNELS 3 Xrotation Yrotation Zrotation
			JOINT RightLeg
			{
				OFFSET 0.018946 -31.938133 0.493100
				CHANNELS 3 Xrotation Yrotation Zrotation
				JOINT RightFoot
				{
					OFFSET -0.018946 -31.938126 -4.336299
					CHANNELS 3 Xrotation Yrotation Zrotation
					JOINT RightToeBase
					{
						OFFSET -0.943001 -26.722004 15.023500
						CHANNELS 3 Xrotation Yrotation Zrotation
						End Site
						{
							OFFSET 0 0 0
						}
					}
				}
			}
		}
	}
	JOINT Hips_virtual
	{
		OFFSET 0.000000 0.000000 0.000000
		CHANNELS 3 Xrotation Yrotation Zrotation
		JOINT Hips
		{
			OFFSET -0.000000 -0.000000 -0.000000
			CHANNELS 3 Xrotation Yrotation Zrotation
			JOINT Spine
			{
				OFFSET 0.000000 10.199997 -0.299500
				CHANNELS 3 Xrotation Yrotation Zrotation
				JOINT Spine1
				{
					OFFSET 0.000000 11.900002 -1.516600
					CHANNELS 3 Xrotation Yrotation Zrotation
					JOINT Spine2
					{
						OFFSET 0.000000 13.600006 -2.842500
						CHANNELS 3 Xrotation Yrotation Zrotation
						JOINT Neck_virtual
						{
							OFFSET 0.000000 0.000000 0.000000
							CHANNELS 3 Xrotation Yrotation Zrotation
							JOINT Neck
							{
								OFFSET 0.000000 9.624100 -2.890100
								CHANNELS 3 Xrotation Yrotation Zrotation
								JOINT Head
								{
									OFFSET 0.000000 14.068802 -1.351900
									CHANNELS 3 Xrotation Yrotation Zrotation
									End Site
									{
										OFFSET 0 0 0
									}
								}
							}
						}
						JOINT LeftShoulder_virtual
						{
							OFFSET 0.000000 0.000000 0.000000
							CHANNELS 3 Xrotation Yrotation Zrotation
							JOINT LeftShoulder
							{
								OFFSET 15.263000 10.923401 -0.547700
								CHANNELS 3 Xrotation Yrotation Zrotation
								JOINT LeftArm
								{
									OFFSET 25.438599 -2.830597 -13.032500
									CHANNELS 3 Xrotation Yrotation Zrotation
									JOINT LeftForeArm
									{
										OFFSET 29.960503 0.000000 0.000000
										CHANNELS 3 Xrotation Yrotation Zrotation
										JOINT LeftHand
										{
											OFFSET 27.849251 0.000000 0.000000
											CHANNELS 3 Xrotation Yrotation Zrotation
											End Site
											{
												OFFSET 0 0 0
											}
										}
									}
								}
							}
						}
						JOINT RightShoulder_virtual
						{
							OFFSET 0.000000 0.000000 0.000000
							CHANNELS 3 Xrotation Yrotation Zrotation
							JOINT RightShoulder
							{
								OFFSET -15.263000 10.923401 -0.547700
								CHANNELS 3 Xrotation Yrotation Zrotation
								JOINT RightArm
								{
									OFFSET -25.438599 -2.830597 -13.032500
									CHANNELS 3 Xrotation Yrotation Zrotation
									JOINT RightForeArm
									{
										OFFSET -29.960503 0.000000 0.000000
										CHANNELS 3 Xrotation Yrotation Zrotation
										JOINT RightHand
										{
											OFFSET -27.849251 0.000000 0.000000
											CHANNELS 3 Xrotation Yrotation Zrotation
											End Site
											{
												OFFSET 0 0 0
											}
										}
									}
								}
							}
						}
					}
				}
			}
		}
	}
}
MOTION
Frames: 6
Frame Time: 0.03333333
-5.468982 138.947235 322.115356 0.000000 0.000000 0.000000 15.007409 -31.845757 35.663792 -100.367704 -3.637581 16.780474 76.432692 18.123209 -5.293832 10.926821 12.700176 7.445170 0.000000 0.000000 0.000000 12.059426 -32.101968 34.668275 -110.353666 -5.419021 9.613994 93.294640 10.454460 7.455306 58.927908 27.631937 15.758604 0.000000 0.000000 0.000000 12.373278 -33.836282 37.169954 -1.128147 -0.497846 -0.296692 33.173877 2.053482 -24.391119 13.984255 -2.771389 -5.310508 0.000000 0.000000 0.000000 11.655757 0.298786 -5.413460 -4.328494 4.635071 -0.505268 0.000000 0.000000 0.000000 15.213796 -0.312638 -5.308506 2.264403 -8.777486 -15.436228 -94.614642 6.221848 -13.906085 41.718334 -53.306850 13.032242 0.000000 0.000000 0.000000 9.169088 -0.461261 -4.899520 16.299027 33.268438 -13.823452 -79.674887 -10.984306 17.032327 -126.668522 68.428223 140.151739 0.000000 0.000000 0.000000 
-5.939246 135.952728 330.580566 0.000000 0.000000 0.000000 17.409268 -30.659059 35.842490 -92.941191 -0.979164 13.318949 62.618505 20.513650 -0.086806 10.738082 12.165387 7.005131 0.000000 0.000000 0.000000 14.667724 -31.087831 35.392951 -107.247002 -6.775605 7.346106 73.605342 5.453858 11.403429 53.669769 26.993609 20.909757 0.000000 0.000000 0.000000 15.860958 -30.631537 37.345733 -1.211836 -0.275934 -0.442293 33.977589 3.158719 -23.909523 12.738682 -2.640272 -6.142690 0.000000 0.000000 0.000000 11.116274 -0.662359 -5.685370 -5.118034 4.939256 -0.590519 0.000000 0.000000 0.000000 14.627610 -1.203558 -5.352727 2.505261 -10.156760 -15.549020 -93.856361 6.729718 -11.869592 39.558120 -54.956655 13.621492 0.000000 0.000000 0.000000 9.881071 -1.196116 -5.441256 14.855815 30.188002 -10.416357 -73.130760 -16.373053 20.664971 -138.461390 66.530113 152.592423 0.000000 0.000000 0.000000 
-6.477756 130.453644 338.224487 0.000000 0.000000 0.000000 18.853294 -29.507732 36.568317 -88.533636 0.090612 12.889161 54.093923 20.143717 3.033231 14.690731 9.039822 1.913141 0.000000 0.000000 0.000000 16.625427 -30.124638 36.076509 -96.373703 -5.389550 5.440252 49.100587 -2.295108 12.361311 51.684762 23.433115 21.209556 0.000000 0.000000 0.000000 18.230248 -27.905119 37.903001 -1.346057 -0.194591 -0.443638 32.999810 4.017084 -24.573431 11.444797 -2.665085 -6.124704 0.000000 0.000000 0.000000 11.218322 -1.568737 -5.261813 -5.110955 5.200201 -0.509717 0.000000 0.000000 0.000000 13.970768 -2.050252 -4.811024 2.699213 -10.546157 -13.652133 -92.025939 9.937276 -10.139837 40.313976 -59.040360 17.507532 0.000000 0.000000 0.000000 10.560395 -1.602011 -5.091072 13.546406 26.784935 -6.793015 -63.951546 -19.085031 24.952887 -143.759486 65.811530 158.717778 0.000000 0.000000 0.000000 
-7.151408 123.172173 345.827698 0.000000 0.000000 0.000000 18.898353 -28.729845 37.391293 -86.077275 0.209303 14.036665 50.847224 20.008401 3.908475 17.614255 7.048456 -0.961942 0.000000 0.000000 0.000000 17.554626 -29.212647 36.497437 -81.123475 -1.117965 4.456483 27.436800 -7.601878 9.377586 58.020394 20.504303 16.986971 0.000000 0.000000 0.000000 18.842110 -26.550863 38.575116 -1.457049 -0.202218 -0.276448 31.009025 4.315667 -25.231347 10.436847 -3.124643 -5.222479 0.000000 0.000000 0.000000 11.697581 -2.472294 -4.100109 -4.407279 5.480924 -0.390254 0.000000 0.000000 0.000000 13.458871 -2.935299 -3.882451 2.781421 -9.835010 -10.215801 -89.987189 15.532067 -8.477741 43.679152 -63.682785 24.132197 0.000000 0.000000 0.000000 10.500142 -1.965139 -3.849335 12.613617 23.565672 -3.225807 -53.659752 -18.436923 29.317296 -144.408449 66.566819 160.197388 0.000000 0.000000 0.000000 
-7.860642 114.779778 353.454529 0.000000 0.000000 0.000000 18.282250 -28.998463 37.571522 -82.157183 -2.540323 12.009149 48.204227 20.671487 5.720462 12.691873 7.414786 1.487624 0.000000 0.000000 0.000000 17.407135 -28.308573 36.078756 -67.447264 5.155088 3.187661 15.253477 -8.092385 4.868253 67.393319 17.474561 10.921677 0.000000 0.000000 0.000000 17.819047 -26.210612 38.373813 -1.534682 -0.309184 -0.029927 28.648409 4.171183 -24.510648 9.430580 -4.040142 -3.719721 0.000000 0.000000 0.000000 12.250646 -3.371348 -2.575196 -3.261621 5.779078 -0.385024 0.000000 0.000000 0.000000 13.015085 -3.806228 -2.980095 2.633045 -8.146831 -6.552350 -87.982788 22.336588 -7.169221 49.333695 -67.723170 33.062972 0.000000 0.000000 0.000000 9.798542 -2.466693 -2.004411 12.055937 20.555130 -0.258935 -42.533849 -16.366720 33.533165 -141.848016 68.098612 158.388931 0.000000 0.000000 0.000000 
-8.665436 106.213356 361.922852 0.000000 0.000000 0.000000 17.355929 -30.178337 36.496740 -74.911705 -8.264626 6.582882 42.914266 21.008928 9.517162 1.676333 8.394518 7.256899 0.000000 0.000000 0.000000 16.771251 -28.172507 34.892872 -57.272997 11.746588 2.431660 14.145102 -5.917961 1.220744 68.913050 13.363433 5.443698 0.000000 0.000000 0.000000 15.510159 -26.397694 36.488670 -1.470206 -0.335909 0.173800 26.503429 3.708166 -21.702402 8.117914 -5.226116 -2.143575 0.000000 0.000000 0.000000 12.295514 -4.255346 -1.318054 -1.991629 6.085218 -0.537181 0.000000 0.000000 0.000000 12.244925 -4.669617 -2.400147 2.219298 -6.034017 -3.483359 -85.251614 28.845887 -6.848402 59.402995 -71.229079 46.054371 0.000000 0.000000 0.000000 8.425515 -3.232470 -0.210339 11.646912 17.712487 1.879279 -30.382823 -14.910634 38.041958 -138.557245 68.987943 155.656828 0.000000 0.000000 0.000000 
